HIERARCHY
ROOT Hips
{
	OFFSET 0.00000 0.00000 0.00000
	CHANNELS 6 Xposition Yposition Zposition Zrotation Yrotation Xrotation 
	JOINT LHipJoint
	{
		OFFSET 0 0 0
		CHANNELS 3 Zrotation Yrotation Xrotation
		JOINT LeftHip
		{
			OFFSET 1.61328 -1.70571 0.84375
			CHANNELS 3 Zrotation Yrotation Xrotation
			JOINT LeftKnee
			{
				OFFSET 2.32400 -6.38513 0.00000
				CHANNELS 3 Zrotation Yrotation Xrotation
				JOINT LeftAnkle
				{
					OFFSET 2.58843 -7.11166 0.00000
					CHANNELS 3 Zrotation Yrotation Xrotation
					JOINT LeftToe
					{
						OFFSET 0.17200 -0.47257 2.47970
						CHANNELS 3 Zrotation Yrotation Xrotation
						End Site
						{
							OFFSET 0.00000 -0.00000 1.26912
						}
					}
				}
			}
		}
	}
	JOINT RHipJoint
	{
		OFFSET 0 0 0
		CHANNELS 3 Zrotation Yrotation Xrotation
		JOINT RightHip
		{
			OFFSET -1.49930 -1.70570 0.84375
			CHANNELS 3 Zrotation Yrotation Xrotation
			JOINT RightKnee
			{
				OFFSET -2.30458 -6.33178 0.00000
				CHANNELS 3 Zrotation Yrotation Xrotation
				JOINT RightAnkle
				{
					OFFSET -2.62261 -7.20556 0.00000
					CHANNELS 3 Zrotation Yrotation Xrotation
					JOINT RightToe
					{
						OFFSET -0.18709 -0.51403 2.51340
						CHANNELS 3 Zrotation Yrotation Xrotation
						End Site
						{
							OFFSET -0.00000 -0.00000 1.28858
						}
					}
				}
			}
		}
	}
	JOINT lowerback
	{
		OFFSET 0 0 0
		CHANNELS 3 Zrotation Yrotation Xrotation
		JOINT Chest
		{
			OFFSET -0.03798 2.19274 -0.19881
			CHANNELS 3 Zrotation Yrotation Xrotation
			JOINT Chest2
			{
				OFFSET -0.00024 2.19460 0.05248
				CHANNELS 3 Zrotation Yrotation Xrotation
				JOINT lowerneck
				{
					OFFSET 0 0 0
					CHANNELS 3 Zrotation Yrotation Xrotation
					JOINT Neck
					{
						OFFSET -0.00746 1.82323 0.17286
						CHANNELS 3 Zrotation Yrotation Xrotation
						JOINT Head
						{
							OFFSET 0.11826 1.82121 -0.27841
							CHANNELS 3 Zrotation Yrotation Xrotation
							End Site
							{
								OFFSET 0.03496 1.85543 -0.11495
							}
						}
					}
				}
				JOINT LeftCollar
				{
					OFFSET 0 0 0
					CHANNELS 3 Zrotation Yrotation Xrotation
					JOINT LeftShoulder
					{
						OFFSET 3.71926 0.78840 0.25473
CHANNELS 3 Zrotation Xrotation Yrotation
						JOINT LeftElbow
						{
OFFSET 0 -5.375870 0.000000
CHANNELS 3 Zrotation Xrotation Yrotation
							JOINT LeftWrist
							{
OFFSET 0 -3.359770 0.000000
CHANNELS 3 Zrotation Xrotation Yrotation
								JOINT lhand
								{
									OFFSET 0 0 0
CHANNELS 3 Zrotation Xrotation Yrotation
									JOINT LFingers
									{
OFFSET 0 -0.561860 0.000000
CHANNELS 3 Zrotation Xrotation Yrotation
										End Site
										{
OFFSET 0 -0.452990 0.000000
										}
									}
								}
								JOINT LThumb
								{
OFFSET 0 0.000000 0.000000
CHANNELS 3 Zrotation Xrotation Yrotation
									End Site
									{
OFFSET 0 -0.459900 0.459900
									}
								}
							}
						}
					}
				}
				JOINT RightCollar
				{
					OFFSET 0 0 0
					CHANNELS 3 Zrotation Yrotation Xrotation
					JOINT RightShoulder
					{
						OFFSET -3.65136 0.56074 0.01624
CHANNELS 3 Zrotation Xrotation Yrotation
						JOINT RightElbow
						{
OFFSET 0 -5.228190 0.000000
CHANNELS 3 Zrotation Xrotation Yrotation
							JOINT RightWrist
							{
OFFSET 0 -3.407640 0.000000
CHANNELS 3 Zrotation Xrotation Yrotation
								JOINT rhand
								{
									OFFSET 0 0 0
CHANNELS 3 Zrotation Xrotation Yrotation
									JOINT RFingers
									{
OFFSET 0 -0.583250 0.000000
CHANNELS 3 Zrotation Xrotation Yrotation
										End Site
										{
OFFSET 0 -0.470240 0.000000
										}
									}
								}
								JOINT RThumb
								{
OFFSET 0 0.000000 0.000000
CHANNELS 3 Zrotation Xrotation Yrotation
									End Site
									{
OFFSET 0 -0.477420 0.477420
									}
								}
							}
						}
					}
				}
			}
		}
	}
}
MOTION
Frames: 6
Frame Time: 0.008333333333333333
48.662768 16.806614 -7.336481 -1.449349 -369.094254 -354.361489 0.000000 0.000000 0.000000 -20.330075 0.166328 -16.470597 1.643325 8.079827 22.956760 0.325010 -2.330301 -10.214568 0.043165 1.341001 3.687551 0.000000 0.000000 0.000000 15.903453 19.760156 -10.135970 -7.345355 -15.615922 50.168714 -0.716345 0.655715 -15.782379 -0.325093 -3.662989 10.130604 -0.902054 3.097777 -0.962689 -1.736721 4.222986 3.461014 -1.091252 2.102250 4.171411 8.489652 9.574504 -3.726378 1.757207 11.947604 14.415557 -0.075209 6.372263 5.390479 0.000000 0.000000 0.000000 16.677596 -8.509122 -27.138284 16.780059 -26.566907 3.988524 23.514091 -4.014412 -17.874026 0.000000 0.000000 0.000000 -7.125000 0.000000 0.000000 -4.450718 49.304752 0.473291 0.000000 0.000000 0.000000 -1.776041 9.815989 22.105683 -20.628502 -31.392085 -5.855184 -34.026940 0.874494 -4.902611 0.000000 0.000000 0.000000 7.125000 0.000000 0.000000 -5.469218 24.074076 -2.774618
48.990383 16.758382 -7.409654 -1.058303 -380.389828 -354.098209 0.000000 0.000000 0.000000 -22.416457 4.798732 -18.260495 1.737440 8.296230 23.617441 0.513630 2.148509 -14.491706 0.033343 1.179153 3.241861 0.000000 0.000000 0.000000 18.275084 13.555620 -12.958361 -7.738440 -15.923494 51.615041 -1.326101 -2.676534 -22.864899 -0.157016 -2.544577 7.013719 -1.851055 3.166121 -1.044525 -2.493816 4.367148 3.549080 -1.330393 2.151221 4.303635 7.361591 8.900068 -4.601286 2.881935 10.864451 14.902367 0.407501 5.858566 5.523346 0.000000 0.000000 0.000000 17.969751 -9.856026 -26.206399 17.409252 -27.394166 4.273988 23.320162 -4.530521 -17.668721 0.000000 0.000000 0.000000 -7.125000 0.000000 0.000000 -4.591041 49.055696 0.460084 0.000000 0.000000 0.000000 -0.842943 9.332267 23.176436 -20.484223 -31.221276 -5.780262 -34.094372 0.870487 -4.980739 0.000000 0.000000 0.000000 7.125000 0.000000 0.000000 -5.511558 23.975959 -2.808849
49.296135 16.697803 -7.440163 -0.943757 -392.778316 -354.167808 0.000000 0.000000 0.000000 -24.204764 8.596075 -19.892997 1.901351 8.657474 24.729601 0.649326 7.605871 -19.846568 0.069255 1.696877 4.668794 0.000000 0.000000 0.000000 21.576557 5.803133 -14.611663 -7.581398 -15.802511 51.040397 -1.451547 -3.980472 -24.494201 -0.011806 -0.701375 1.927519 -2.404360 3.109003 -1.572174 -3.124638 4.337519 3.373561 -1.650563 2.122849 4.430926 5.759143 7.711506 -5.432261 4.091649 9.121005 15.776009 0.953730 5.014970 5.758694 0.000000 0.000000 0.000000 18.547979 -9.966481 -24.694790 17.804658 -27.906268 4.457402 24.222032 -4.477956 -17.733448 0.000000 0.000000 0.000000 -7.125000 0.000000 0.000000 -3.728169 49.267116 0.392697 0.000000 0.000000 0.000000 -0.443079 8.443858 24.611415 -19.670595 -30.243317 -5.364446 -33.890296 1.177106 -4.807616 0.000000 0.000000 0.000000 7.125000 0.000000 0.000000 -5.377073 24.196948 -2.712142
49.576628 16.666352 -7.467537 -1.648987 -405.195558 -353.603663 0.000000 0.000000 0.000000 -25.182899 12.010943 -22.143484 2.105440 9.082206 26.052919 0.664586 12.863161 -24.913540 0.088612 1.919657 5.283663 0.000000 0.000000 0.000000 25.132841 -1.244219 -14.844895 -6.728057 -15.098167 47.837440 -2.082575 -5.513128 -29.674363 -0.027824 -1.076460 2.959260 -2.207442 2.988288 -2.165068 -3.491004 4.186106 3.031307 -2.123223 2.056583 4.451080 4.026370 6.031450 -5.945217 5.455507 6.756373 15.910892 1.501405 3.857649 5.749956 0.000000 0.000000 0.000000 18.551015 -9.893161 -23.852433 18.032240 -28.198402 4.564464 23.059221 -4.874782 -17.150348 0.000000 0.000000 0.000000 -7.125000 0.000000 0.000000 -4.723716 48.464151 0.404365 0.000000 0.000000 0.000000 -0.088193 7.441486 25.487340 -19.044652 -29.474176 -5.052787 -34.820646 1.287649 -4.915716 0.000000 0.000000 0.000000 7.125000 0.000000 0.000000 -6.053417 24.003225 -3.083971
49.831605 16.661960 -7.497494 -2.280952 -417.511639 -353.188284 0.000000 0.000000 0.000000 -25.818757 13.983583 -23.903843 2.375339 9.607644 27.715391 1.444527 15.508819 -32.857657 0.554910 4.765368 13.241611 0.000000 0.000000 0.000000 26.760518 -4.838359 -13.053873 -5.037812 -13.425420 40.984096 -2.661369 -6.361559 -33.551798 -0.021629 -0.946147 2.600709 -1.845997 2.930496 -2.338742 -3.761386 4.090526 2.776542 -2.607218 2.021952 4.327770 2.370294 4.432370 -6.336459 6.807670 4.522114 15.793965 2.046897 2.760651 5.716058 0.000000 0.000000 0.000000 17.888026 -10.153879 -23.760791 18.422129 -28.694327 4.750215 23.204224 -4.306925 -17.217493 0.000000 0.000000 0.000000 -7.125000 0.000000 0.000000 -4.599349 48.557577 0.404425 0.000000 0.000000 0.000000 -0.117020 7.029757 26.955887 -19.124726 -29.573323 -5.092285 -34.974601 1.261017 -4.900772 0.000000 0.000000 0.000000 7.125000 0.000000 0.000000 -6.168418 24.010387 -3.142220
50.061955 16.632074 -7.538289 -3.249279 -428.635611 -352.340880 0.000000 0.000000 0.000000 -27.101338 16.840296 -25.485196 2.329417 9.520925 27.438821 0.968920 22.082957 -36.826799 0.306351 3.558157 9.836936 0.000000 0.000000 0.000000 27.071436 -3.890967 -10.942345 -3.752573 -11.823621 35.110855 -3.533478 -5.736914 -37.823240 -0.326632 -3.672736 10.157872 -1.326266 2.466599 -2.530744 -3.736717 3.443080 2.604813 -2.907285 1.713395 4.263287 1.147871 3.459516 -6.259751 7.705027 3.229218 15.052485 2.424591 2.094028 5.457082 0.000000 0.000000 0.000000 16.637098 -10.065260 -23.788360 19.447583 -29.971038 5.252603 22.777650 -4.757866 -16.863686 0.000000 0.000000 0.000000 -7.125000 0.000000 0.000000 -4.929177 48.117361 0.379910 0.000000 0.000000 0.000000 -0.488599 6.398926 27.823027 -18.993747 -29.410876 -5.027764 -33.337621 1.304063 -4.725514 0.000000 0.000000 0.000000 7.125000 0.000000 0.000000 -4.975308 24.330768 -2.492590
